# xmcd
# Track frame offsets:
# 150
# 28880
# 55485
# 92075
# 111912
# 133325
# 154407
# 175720
# 199280
# 224382
# 244235
#
# Disc length: 3463 seconds
# Revision: 0
# Processed by: cddbd v1.4PL0 Copyright (c) Steve Scherf et al.
# Submitted via: VisiTrax 2.9.5.181 - For more info visit www.synapsa.com
#
DISCID=aa0d850b
DTITLE=Clapton, Eric - Feelin' Alright
DYEAR=1993
DGENRE=
TTITLE0=White Room
TTITLE1=Badge
TTITLE2=Wonderful Tonight
TTITLE3=Stone Free
TTITLE4=Burning The Midnight Lamp
TTITLE5=Circus Left Town
TTITLE6=Tears In Heaven
TTITLE7=Feelin' Alright
TTITLE8=Love Me Like You Do
TTITLE9=You Can Leave Your Hat On
TTITLE10=Hard Times
EXTD=Recorded Live at Birmingham NEC Arena, 01/10/1993
EXTT0=
EXTT1=
EXTT2=
EXTT3=
EXTT4=
EXTT5=
EXTT6=With Joe Cocker on Vocals
EXTT7=With Joe Cocker on Vocals
EXTT8=With Joe Cocker on Vocals
EXTT9=With Joe Cocker on Vocals
EXTT10=With Joe Cocker on Vocals
PLAYORDER=
